<svg width="12" height="12" viewBox="0 0 12 12" fill="none" xmlns="http://www.w3.org/2000/svg">
<rect width="12" height="12" fill="none"/>
<g id="Sign in" clip-path="url(#clip0_389_1589)">
<rect width="1440" height="960" transform="translate(-524 -404)" fill="none"/>
<g id="Frame 18023">
<g id="Frame 1000001036">
<g id="Sign up">
<g id="Frame 1000001032">
<g id="Frame 1000001028">
<g id="Frame 1000001027">
<g id="Frame 1000001026">
<g id="field">
<rect x="-335" y="-9" width="357" height="30" fill="none"/>
<g id="eye-slash">
<g id="vuesax/outline/eye-slash">
<g id="eye-slash_2">
<path id="Vector" d="M4.73496 7.63996C4.63996 7.63996 4.54496 7.60496 4.46996 7.52996C4.05996 7.11996 3.83496 6.57496 3.83496 5.99996C3.83496 4.80496 4.80496 3.83496 5.99996 3.83496C6.57496 3.83496 7.11996 4.05996 7.52996 4.46996C7.59996 4.53996 7.63996 4.63496 7.63996 4.73496C7.63996 4.83496 7.59996 4.92996 7.52996 4.99996L4.99996 7.52996C4.92496 7.60496 4.82996 7.63996 4.73496 7.63996ZM5.99996 4.58496C5.21996 4.58496 4.58496 5.21996 4.58496 5.99996C4.58496 6.24996 4.64996 6.48996 4.76996 6.69996L6.69996 4.76996C6.48996 4.64996 6.24996 4.58496 5.99996 4.58496Z" fill="#828282"/>
<path id="Vector_2" d="M2.79992 9.25499C2.71492 9.25499 2.62492 9.22499 2.55492 9.16499C2.01992 8.70999 1.53992 8.14999 1.12992 7.49999C0.599922 6.67499 0.599922 5.32999 1.12992 4.49999C2.34992 2.58999 4.12492 1.48999 5.99992 1.48999C7.09992 1.48999 8.18492 1.86999 9.13492 2.58499C9.29992 2.70999 9.33492 2.94499 9.20992 3.10999C9.08492 3.27499 8.84992 3.30999 8.68492 3.18499C7.86492 2.56499 6.93492 2.23999 5.99992 2.23999C4.38492 2.23999 2.83992 3.20999 1.75992 4.90499C1.38492 5.48999 1.38492 6.50999 1.75992 7.09499C2.13492 7.67999 2.56492 8.18499 3.03992 8.59499C3.19492 8.72999 3.21492 8.96499 3.07992 9.12499C3.00992 9.20999 2.90492 9.25499 2.79992 9.25499Z" fill="#828282"/>
<path id="Vector_3" d="M6.00028 10.51C5.33528 10.51 4.68528 10.375 4.06028 10.11C3.87028 10.03 3.78028 9.81 3.86028 9.62C3.94028 9.43 4.16028 9.34 4.35028 9.42C4.88028 9.645 5.43528 9.76 5.99528 9.76C7.61028 9.76 9.15528 8.79 10.2353 7.095C10.6103 6.51 10.6103 5.49 10.2353 4.905C10.0803 4.66 9.91028 4.425 9.73028 4.205C9.60028 4.045 9.62528 3.81 9.78528 3.675C9.94528 3.545 10.1803 3.565 10.3153 3.73C10.5103 3.97 10.7003 4.23 10.8703 4.5C11.4003 5.325 11.4003 6.67 10.8703 7.5C9.65028 9.41 7.87528 10.51 6.00028 10.51Z" fill="#828282"/>
<path id="Vector_4" d="M6.3448 8.13493C6.1698 8.13493 6.0098 8.00993 5.9748 7.82993C5.9348 7.62493 6.0698 7.42993 6.2748 7.39493C6.8248 7.29493 7.2848 6.83493 7.3848 6.28493C7.4248 6.07993 7.6198 5.94993 7.8248 5.98493C8.0298 6.02493 8.1648 6.21993 8.1248 6.42493C7.9648 7.28993 7.2748 7.97493 6.4148 8.13493C6.3898 8.12993 6.3698 8.13493 6.3448 8.13493Z" fill="#828282"/>
<path id="Vector_5" d="M0.999727 11.3751C0.904727 11.3751 0.809727 11.3401 0.734727 11.2651C0.589727 11.1201 0.589727 10.8801 0.734727 10.7351L4.46973 7.00011C4.61473 6.85511 4.85473 6.85511 4.99973 7.00011C5.14473 7.14511 5.14473 7.38511 4.99973 7.53011L1.26473 11.2651C1.18973 11.3401 1.09473 11.3751 0.999727 11.3751Z" fill="#828282"/>
<path id="Vector_6" d="M7.26535 5.10997C7.17035 5.10997 7.07535 5.07497 7.00035 4.99997C6.85535 4.85497 6.85535 4.61497 7.00035 4.46997L10.7354 0.734971C10.8804 0.589971 11.1204 0.589971 11.2654 0.734971C11.4104 0.879971 11.4104 1.11997 11.2654 1.26497L7.53035 4.99997C7.45535 5.07497 7.36035 5.10997 7.26535 5.10997Z" fill="#828282"/>
</g>
</g>
</g>
<rect x="-335" y="-9" width="357" height="30" stroke="#F7F7F7" stroke-width="0.8"/>
</g>
</g>
</g>
</g>
</g>
</g>
</g>
</g>
</g>
<defs>
<clipPath id="clip0_389_1589">
<rect width="1440" height="960" fill="white" transform="translate(-524 -404)"/>
</clipPath>
</defs>
</svg>
