<svg width="14" height="16" viewBox="0 0 14 16" fill="none" xmlns="http://www.w3.org/2000/svg">
<path d="M6.8 14L6.12918 15.3416C6.55147 15.5528 7.04853 15.5528 7.47082 15.3416L6.8 14ZM11.6 3.8H13.1C13.1 3.17473 12.7121 2.61505 12.1267 2.39551L11.6 3.8ZM6.8 2L7.32669 0.595506C6.98711 0.468165 6.61289 0.468165 6.27332 0.595506L6.8 2ZM2 3.8L1.47331 2.39551C0.887859 2.61505 0.5 3.17473 0.5 3.8H2ZM7.46603 4.9279C8.27243 4.73816 8.77233 3.93062 8.58259 3.12421C8.39285 2.31781 7.58531 1.81791 6.77891 2.00765L7.46603 4.9279ZM6.18031 3.90988L5.52697 2.55964L5.52697 2.55964L6.18031 3.90988ZM5.80903 4.08586L5.89223 5.58355L5.89223 5.58355L5.80903 4.08586ZM5.32829 4.33696L6.27815 5.4979L6.27815 5.4979L5.32829 4.33696ZM4.64796 4.87779L5.89604 5.70984L5.89604 5.70984L4.64796 4.87779ZM4.3797 5.06021L3.65123 3.74898L3.65123 3.74898L4.3797 5.06021ZM4.17796 5.24478L5.03177 6.47807L5.03177 6.47807L4.17796 5.24478ZM3.65001 7.6549L2.18988 7.99846L3.65001 7.6549ZM3.81741 8.48116L2.41157 9.00426L2.41157 9.00427L3.81741 8.48116ZM3.93759 8.88035L5.3356 8.33668L5.3356 8.33668L3.93759 8.88035ZM4.11787 9.26236L2.67072 9.65704L2.67072 9.65704L4.11787 9.26236ZM4.67157 10.2453L5.93706 9.43998L5.93706 9.43998L4.67157 10.2453ZM6 12L5.52566 13.423L5.52566 13.423L6 12ZM8.08823 11.078L6.94086 10.1118L6.94086 10.1118L8.08823 11.078ZM8.26421 10.726L9.54414 11.5082L9.54414 11.5082L8.26421 10.726ZM9.71072 9.79131L8.44731 8.98273L8.44731 8.98273L9.71072 9.79131ZM9.67208 8.10344L11.0285 8.74395L11.0285 8.74395L9.67208 8.10344ZM9.71072 7.06042L8.50445 7.952L8.50445 7.952L9.71072 7.06042ZM9.53902 6.55822L8.19738 7.22904L8.19738 7.22904L9.53902 6.55822ZM9.38236 6.16977L10.6897 5.43437L10.6897 5.43437L9.38236 6.16977ZM9.24715 5.86287L8.12604 6.85942L8.12604 6.85942L9.24715 5.86287ZM9.10121 5.1761L8.09776 4.06116L8.09776 4.06116L9.10121 5.1761ZM9.51756 5.24478L9.69282 3.75505L9.69282 3.75505L9.51756 5.24478ZM9.19135 5.74483L10.0881 6.94728L10.0881 6.94728L9.19135 5.74483ZM8.45522 6.17406L9.08381 7.536L9.08381 7.536L8.45522 6.17406ZM5 6.5L6.45521 6.8638L6.45521 6.8638L5 6.5ZM6.5 9.5L5.43934 10.5607L5.43934 10.5607L6.5 9.5ZM8.08823 8.59965L9.3721 9.37533L9.3721 9.37532L8.08823 8.59965ZM7.10101 7.2922L8.58652 7.50017L8.58652 7.50017L7.10101 7.2922ZM7.29416 5.80278L5.80967 5.58763L5.80967 5.58763L7.29416 5.80278ZM7.79206 4.59664L6.47413 3.88037L6.47413 3.88037L7.79206 4.59664ZM7.97234 4.20175L9.31398 3.53094L9.31398 3.53093L7.97234 4.20175ZM7.4401 4.24039L7.46064 5.74024L7.46064 5.74024L7.4401 4.24039ZM4.66084 4.3992L4.49052 2.9089L4.49052 2.9089L4.66084 4.3992ZM2.49723 3.9945C2.12674 4.73547 2.42708 5.63648 3.16805 6.00696C3.90901 6.37745 4.81002 6.07711 5.18051 5.33614L2.49723 3.9945ZM9.40099 3.93926C8.85061 4.55844 8.90638 5.50655 9.52555 6.05692C10.1447 6.6073 11.0928 6.55153 11.6432 5.93236L9.40099 3.93926ZM10.6466 4.67398L11.7615 5.67743L11.7615 5.67743L10.6466 4.67398ZM10.6273 4.62891L10.5504 3.13088L10.5504 3.13088L10.6273 4.62891ZM9.26231 4.81777L8.92503 3.35619L8.92502 3.35619L9.26231 4.81777ZM8.65922 3.44044C7.89598 3.76256 7.53839 4.64241 7.86051 5.40565C8.18263 6.16889 9.06248 6.52648 9.82572 6.20436L8.65922 3.44044ZM9.38035 4.74266L8.42679 3.58476L8.42679 3.58476L9.38035 4.74266ZM10.1852 6.01116C10.9711 5.74919 11.3959 4.89971 11.1339 4.11379C10.8719 3.32788 10.0224 2.90314 9.23652 3.16511L10.1852 6.01116ZM6.8 14C7.47082 15.3416 7.47123 15.3414 7.47166 15.3412C7.47183 15.3411 7.47228 15.3409 7.47262 15.3407C7.47329 15.3404 7.47404 15.34 7.47486 15.3396C7.4765 15.3388 7.47844 15.3378 7.48067 15.3367C7.48512 15.3344 7.49074 15.3316 7.49748 15.3281C7.51096 15.3212 7.52895 15.3119 7.55116 15.3003C7.59555 15.277 7.65687 15.2442 7.73272 15.2022C7.88423 15.1183 8.09484 14.9971 8.345 14.8407C8.84219 14.53 9.51143 14.0706 10.1878 13.4789C11.4774 12.3504 13.1 10.4697 13.1 8H10.1C10.1 9.13034 9.32262 10.2496 8.21224 11.2211C7.68857 11.6794 7.15781 12.045 6.755 12.2968C6.55516 12.4217 6.39077 12.5161 6.27978 12.5775C6.22438 12.6082 6.18258 12.6305 6.15666 12.6441C6.1437 12.6509 6.13474 12.6555 6.13006 12.6579C6.12772 12.6591 6.12645 12.6597 6.12629 12.6598C6.12621 12.6598 6.12641 12.6597 6.12689 12.6595C6.12713 12.6594 6.12744 12.6592 6.12782 12.659C6.12801 12.6589 6.12835 12.6588 6.12845 12.6587C6.1288 12.6585 6.12918 12.6584 6.8 14ZM13.1 8V3.8H10.1V8H13.1ZM12.1267 2.39551L7.32669 0.595506L6.27332 3.40449L11.0733 5.20449L12.1267 2.39551ZM6.27332 0.595506L1.47331 2.39551L2.52669 5.20449L7.32669 3.40449L6.27332 0.595506ZM0.5 3.8V8H3.5V3.8H0.5ZM0.5 8C0.5 10.4697 2.12262 12.3504 3.41224 13.4789C4.08857 14.0706 4.75781 14.53 5.255 14.8407C5.50516 14.9971 5.71577 15.1183 5.86728 15.2022C5.94313 15.2442 6.00446 15.277 6.04884 15.3003C6.07105 15.3119 6.08904 15.3212 6.10252 15.3281C6.10926 15.3316 6.11488 15.3344 6.11933 15.3367C6.12156 15.3378 6.1235 15.3388 6.12514 15.3396C6.12596 15.34 6.12671 15.3404 6.12738 15.3407C6.12772 15.3409 6.12817 15.3411 6.12834 15.3412C6.12877 15.3414 6.12918 15.3416 6.8 14C7.47082 12.6584 7.4712 12.6585 7.47155 12.6587C7.47165 12.6588 7.47199 12.6589 7.47218 12.659C7.47256 12.6592 7.47287 12.6594 7.47311 12.6595C7.47359 12.6597 7.47379 12.6598 7.47371 12.6598C7.47355 12.6597 7.47228 12.6591 7.46994 12.6579C7.46526 12.6555 7.4563 12.6509 7.44334 12.6441C7.41742 12.6305 7.37562 12.6082 7.32022 12.5775C7.20923 12.5161 7.04484 12.4217 6.845 12.2968C6.44219 12.045 5.91143 11.6794 5.38776 11.2211C4.27738 10.2496 3.5 9.13034 3.5 8H0.5ZM6.77891 2.00765C6.42578 2.09074 6.12957 2.23747 5.94257 2.33593C5.6754 2.47662 5.66341 2.49362 5.52697 2.55964L6.83365 5.26012C6.94591 5.2058 7.05055 5.14893 7.13074 5.10485C7.22116 5.05516 7.27753 5.02348 7.34032 4.99042C7.46764 4.92338 7.49236 4.9217 7.46603 4.9279L6.77891 2.00765ZM5.52697 2.55964C5.477 2.58382 5.43473 2.60696 5.40663 2.62274C5.37769 2.63899 5.3513 2.65451 5.33358 2.66499C5.30943 2.67927 5.30481 2.6821 5.28894 2.69143C5.2776 2.6981 5.27195 2.70131 5.26934 2.70276C5.25915 2.70844 5.28604 2.69251 5.3357 2.67236C5.36245 2.66151 5.40704 2.6448 5.46596 2.62909C5.52351 2.61375 5.6129 2.59445 5.72582 2.58817L5.89223 5.58355C6.15595 5.5689 6.3622 5.49339 6.46336 5.45236C6.57782 5.40593 6.67265 5.35512 6.7296 5.32338C6.78514 5.29243 6.84383 5.2572 6.86044 5.24738C6.89667 5.22595 6.87393 5.24063 6.83365 5.26012L5.52697 2.55964ZM5.72582 2.58817C5.3016 2.61174 4.96433 2.7949 4.85622 2.85413C4.69208 2.94407 4.54603 3.04525 4.43963 3.12741L6.27321 5.50186C6.27316 5.5019 6.27483 5.50061 6.27798 5.49835C6.28107 5.49613 6.28467 5.49363 6.28845 5.49112C6.29717 5.48532 6.30083 5.48342 6.29771 5.48513C6.29719 5.48541 6.2724 5.4993 6.22643 5.51655C6.20225 5.52562 6.1638 5.53881 6.11324 5.55117C6.06402 5.56321 5.98821 5.57822 5.89223 5.58355L5.72582 2.58817ZM4.43963 3.12741C4.41933 3.14309 4.39883 3.15933 4.37843 3.17603L6.27815 5.4979C6.27493 5.50053 6.27325 5.50182 6.27321 5.50186L4.43963 3.12741ZM4.37843 3.17603C4.38577 3.17003 4.37827 3.17695 4.32993 3.20865C4.31104 3.22105 4.19282 3.29676 4.12679 3.34136C3.96795 3.44864 3.64841 3.67296 3.39989 4.04574L5.89604 5.70984C5.84735 5.78287 5.80196 5.8257 5.78499 5.84071C5.77006 5.85393 5.76993 5.85173 5.80596 5.8274C5.82318 5.81577 5.84358 5.80244 5.87295 5.78348C5.89838 5.76706 5.93844 5.74137 5.97535 5.71716C6.05004 5.66817 6.16203 5.5929 6.27815 5.4979L4.37843 3.17603ZM3.39989 4.04574C3.49773 3.89897 3.59985 3.8093 3.64969 3.76884C3.70334 3.72528 3.74439 3.7005 3.7548 3.69427C3.76644 3.68732 3.77024 3.68572 3.75111 3.69576C3.74696 3.69793 3.69216 3.72624 3.65123 3.74898L5.10816 6.37145C5.10759 6.37176 5.0999 6.37594 5.14539 6.35207C5.17588 6.33606 5.23182 6.30648 5.29384 6.26942C5.35464 6.23308 5.44433 6.17605 5.54061 6.09787C5.63308 6.0228 5.77183 5.89616 5.89604 5.70984L3.39989 4.04574ZM3.65123 3.74898C3.48697 3.84023 3.37086 3.94195 3.31318 3.99516C3.25296 4.05074 3.20327 4.10401 3.18819 4.12005C3.16093 4.14903 3.17015 4.13898 3.18062 4.12872C3.19262 4.11697 3.24351 4.06732 3.32414 4.01149L5.03177 6.47807C5.09235 6.43613 5.14275 6.39558 5.1821 6.36176C5.22158 6.32782 5.25465 6.29659 5.2799 6.27185C5.30513 6.24714 5.32642 6.22511 5.34118 6.20963C5.3544 6.19576 5.36938 6.17976 5.37348 6.17541C5.38063 6.16781 5.3804 6.16813 5.37764 6.17095C5.37464 6.17401 5.36389 6.18494 5.34763 6.19994C5.33155 6.21478 5.30445 6.23884 5.26784 6.26691C5.23156 6.29474 5.17794 6.33268 5.10816 6.37145L3.65123 3.74898ZM3.32414 4.01149C2.28377 4.73175 2.14571 5.8355 2.14571 6.49384H5.14571C5.14571 6.42329 5.14958 6.37487 5.15401 6.3434C5.15837 6.31234 5.162 6.30716 5.15741 6.31951C5.15213 6.33376 5.13868 6.36375 5.11205 6.3991C5.08459 6.43555 5.05481 6.46212 5.03177 6.47807L3.32414 4.01149ZM2.14571 6.49384C2.14571 6.63809 2.13319 6.6892 2.11858 7.00932C2.10835 7.23338 2.09836 7.60949 2.18988 7.99846L5.11013 7.31134C5.11941 7.35075 5.10727 7.32557 5.11546 7.1461C5.11936 7.06065 5.1248 6.98681 5.13201 6.86903C5.13832 6.76605 5.14571 6.63209 5.14571 6.49384H2.14571ZM2.18988 7.99846C2.20305 8.05441 2.20686 8.09672 2.23956 8.3038C2.26358 8.45588 2.30833 8.7268 2.41157 9.00426L5.22324 7.95806C5.23275 7.98362 5.22398 7.96971 5.20283 7.83577C5.19814 7.80607 5.19359 7.77585 5.18796 7.73861C5.18264 7.70341 5.17633 7.66173 5.16951 7.61919C5.15613 7.53578 5.13735 7.427 5.11013 7.31134L2.18988 7.99846ZM2.41157 9.00427C2.40495 8.98646 2.40356 8.97669 2.42549 9.06046C2.44123 9.12054 2.47836 9.2666 2.53958 9.42402L5.3356 8.33668C5.34536 8.36177 5.34692 8.37412 5.32768 8.30063C5.31464 8.25083 5.27889 8.10763 5.22324 7.95806L2.41157 9.00427ZM2.53958 9.42402C2.57933 9.52621 2.62138 9.61103 2.65053 9.66722C2.66553 9.69614 2.67955 9.72207 2.69012 9.74149C2.6954 9.75119 2.70063 9.76075 2.70469 9.76815C2.70906 9.77614 2.7124 9.78225 2.7155 9.78795C2.72941 9.81355 2.72659 9.80949 2.71958 9.79426C2.71204 9.77791 2.69039 9.72915 2.67072 9.65704L5.56501 8.86768C5.52786 8.73147 5.48121 8.61906 5.44444 8.53923C5.40819 8.46053 5.3719 8.39319 5.35139 8.35545C5.32338 8.30391 5.32121 8.30056 5.31352 8.28575C5.30962 8.27823 5.32096 8.29904 5.3356 8.33668L2.53958 9.42402ZM2.67072 9.65704C2.77614 10.0436 2.95483 10.358 3.08675 10.5688C3.15463 10.6773 3.22347 10.7787 3.27618 10.8562C3.33419 10.9416 3.37238 10.9977 3.40608 11.0506L5.93706 9.43998C5.87355 9.34017 5.80609 9.2416 5.75727 9.16977C5.70313 9.09013 5.66395 9.03185 5.62987 8.9774C5.55789 8.86236 5.55693 8.83806 5.56501 8.86768L2.67072 9.65704ZM3.40608 11.0506C3.44998 11.1196 3.50886 11.2253 3.61913 11.4212C3.71666 11.5945 3.84208 11.8153 3.98178 12.0339C4.11841 12.2477 4.29539 12.5022 4.50779 12.7323C4.70052 12.9412 5.03947 13.261 5.52566 13.423L6.47434 10.577C6.69663 10.6511 6.77353 10.764 6.71265 10.698C6.67143 10.6533 6.60323 10.5648 6.50968 10.4184C6.41921 10.2769 6.32945 10.1203 6.23341 9.94963C6.1501 9.80163 6.03699 9.597 5.93706 9.43998L3.40608 11.0506ZM5.52566 13.423C6.48629 13.7432 7.26837 13.2917 7.51177 13.1583C7.69812 13.0562 7.72588 13.0377 7.77645 13.0157C7.79785 13.0064 7.72647 13.0416 7.60106 13.0416V10.0416C7.17471 10.0416 6.82477 10.1581 6.57961 10.2648C6.36361 10.3587 6.13679 10.4909 6.07015 10.5274C5.80759 10.6712 6.09007 10.4489 6.47434 10.577L5.52566 13.423ZM7.60106 13.0416C7.94574 13.0416 8.27986 12.9485 8.57283 12.7649C8.84485 12.5944 9.01607 12.3865 9.11209 12.2534C9.19824 12.134 9.27354 12.0004 9.28252 11.9851C9.31249 11.9342 9.28821 11.9817 9.2356 12.0442L6.94086 10.1118C6.81422 10.2622 6.72756 10.4116 6.6967 10.4641C6.64486 10.5522 6.66091 10.5235 6.67929 10.498C6.70754 10.4589 6.80249 10.3339 6.97966 10.2229C7.17778 10.0987 7.39846 10.0416 7.60106 10.0416V13.0416ZM9.2356 12.0442C9.3475 11.9113 9.42254 11.7836 9.47106 11.6903C9.51858 11.599 9.55253 11.5171 9.56955 11.4756C9.57626 11.4592 9.58876 11.4282 9.59029 11.4244C9.59505 11.4127 9.59611 11.4103 9.59552 11.4117C9.59534 11.4121 9.57822 11.4524 9.54414 11.5082L6.98429 9.94385C6.91677 10.0543 6.87105 10.154 6.84425 10.2157C6.83035 10.2476 6.81859 10.2763 6.81067 10.2959C6.8068 10.3054 6.80272 10.3155 6.80015 10.3219C6.79717 10.3293 6.79515 10.3342 6.79344 10.3384C6.78493 10.3592 6.79249 10.3388 6.80987 10.3054C6.82826 10.27 6.86943 10.1966 6.94086 10.1118L9.2356 12.0442ZM9.54414 11.5082C9.46487 11.6379 9.38469 11.72 9.35218 11.752C9.31384 11.7897 9.28532 11.812 9.27745 11.8181C9.26324 11.8291 9.27077 11.8221 9.31622 11.794C9.40738 11.7376 9.53419 11.6674 9.70752 11.5723C9.86056 11.4883 10.0605 11.3793 10.2296 11.2757C10.3144 11.2237 10.4201 11.1558 10.5229 11.0776C10.5898 11.0267 10.8058 10.8628 10.9741 10.5999L8.44731 8.98273C8.52682 8.8585 8.60554 8.7803 8.63643 8.75075C8.67327 8.7155 8.70019 8.69484 8.70682 8.68979C8.71863 8.68081 8.70888 8.68906 8.66212 8.71772C8.56793 8.77543 8.43959 8.84609 8.26461 8.94208C8.10992 9.02694 7.90894 9.13692 7.73775 9.24284C7.65203 9.29588 7.54474 9.36555 7.44022 9.44652C7.37186 9.49948 7.15179 9.66977 6.98429 9.94385L9.54414 11.5082ZM10.9741 10.5999C11.2488 10.1707 11.3567 9.70918 11.3265 9.25638C11.3008 8.87029 11.1726 8.54653 11.1292 8.4313C11.0023 8.09369 11.1799 8.42322 11.0285 8.74395L8.31571 7.46293C8.09799 7.92398 8.06158 8.37493 8.11916 8.77166C8.16776 9.10652 8.2904 9.40527 8.32111 9.48697C8.3762 9.63351 8.34076 9.56958 8.33318 9.456C8.32116 9.2757 8.37264 9.09939 8.44731 8.98273L10.9741 10.5999ZM11.0285 8.74395C11.1955 8.39015 11.2584 7.96045 11.2782 7.67975C11.29 7.51331 11.2933 7.30847 11.2677 7.09567C11.2484 6.93448 11.1897 6.5378 10.917 6.16883L8.50445 7.952C8.38978 7.79686 8.34025 7.65809 8.32015 7.59279C8.29806 7.52105 8.29116 7.47036 8.28908 7.45298C8.28519 7.42059 8.28875 7.42483 8.28565 7.46875C8.28292 7.50744 8.27715 7.54611 8.27183 7.57161C8.26932 7.58363 8.26876 7.58382 8.27195 7.5732C8.27374 7.56726 8.28628 7.52525 8.31571 7.46293L11.0285 8.74395ZM10.917 6.16883C11.0002 6.28142 11.0425 6.38218 11.0621 6.43684C11.0797 6.48561 11.0851 6.51593 11.0779 6.48407C11.0764 6.47747 11.0748 6.47013 11.0722 6.4587C11.07 6.44849 11.0668 6.43394 11.0634 6.41896C11.0567 6.38905 11.0466 6.34562 11.0336 6.29675C11.0082 6.20131 10.9631 6.05225 10.8807 5.8874L8.19738 7.22904C8.15428 7.14284 8.13712 7.07804 8.13477 7.06919C8.13328 7.06362 8.13357 7.06409 8.13675 7.07823C8.13834 7.08529 8.14 7.09282 8.14262 7.10468C8.14497 7.11533 8.14821 7.13005 8.1517 7.14546C8.16439 7.20164 8.19139 7.31908 8.2387 7.45082C8.28813 7.58845 8.36847 7.76802 8.50445 7.952L10.917 6.16883ZM10.8807 5.8874C10.8965 5.91897 10.9038 5.93917 10.9026 5.93606C10.8995 5.92786 10.8973 5.9211 10.8816 5.87561C10.8605 5.81398 10.799 5.62864 10.6897 5.43437L8.07499 6.90516C8.05166 6.86367 8.03901 6.83313 8.03543 6.82424C8.03284 6.81779 8.03367 6.81908 8.04429 6.85C8.05136 6.87058 8.07141 6.9301 8.09284 6.98737C8.11617 7.04974 8.15016 7.1346 8.19738 7.22904L10.8807 5.8874ZM10.6897 5.43437C10.7344 5.51378 10.7557 5.57373 10.7565 5.57596C10.758 5.58015 10.758 5.58022 10.7544 5.56957C10.7531 5.5657 10.7438 5.53826 10.7378 5.52068C10.7244 5.482 10.6937 5.39349 10.6475 5.29443C10.6025 5.19787 10.5168 5.03346 10.3683 4.86632L8.12604 6.85942C8.0652 6.79098 8.02159 6.72764 7.99172 6.67911C7.96182 6.63052 7.94131 6.58958 7.92859 6.56231C7.91579 6.53485 7.90766 6.51426 7.9041 6.50499C7.90056 6.49577 7.89922 6.4916 7.90131 6.49768C7.90227 6.50047 7.90355 6.50422 7.90568 6.51052C7.90733 6.51541 7.9107 6.52542 7.91352 6.53373C7.91951 6.55137 7.92914 6.57954 7.94076 6.61114C7.95248 6.64301 7.96869 6.68519 7.9894 6.73272C8.01004 6.78007 8.03809 6.83956 8.07499 6.90516L10.6897 5.43437ZM10.3683 4.86632C10.4213 4.92604 10.4539 4.97414 10.4682 4.99598C10.4854 5.0223 10.4993 5.04654 10.5112 5.06982L7.84294 6.44103C7.90035 6.55274 7.99333 6.71012 8.12604 6.85942L10.3683 4.86632ZM10.5112 5.06982C10.5239 5.09456 10.545 5.13862 10.5661 5.20128C10.577 5.23357 10.5915 5.28162 10.604 5.34251C10.6159 5.40037 10.6313 5.49474 10.6313 5.61392H7.63126C7.63126 6.03655 7.80492 6.36704 7.84294 6.44102L10.5112 5.06982ZM10.6313 5.61392C10.6313 5.40108 10.5886 5.23167 10.5599 5.13636C10.5304 5.03822 10.4972 4.95971 10.4816 4.92347C10.4728 4.9032 10.4647 4.88516 10.4603 4.87538C10.4546 4.86262 10.4535 4.86024 10.452 4.8569C10.4494 4.85089 10.4592 4.8725 10.4714 4.90688C10.4907 4.96176 10.5631 5.17491 10.5286 5.46546C10.5103 5.61997 10.4635 5.78089 10.3816 5.9351C10.3006 6.0876 10.2003 6.20495 10.1047 6.29104L8.09776 4.06116C7.80445 4.32514 7.59957 4.68998 7.5495 5.11197C7.50581 5.48024 7.59558 5.77265 7.64226 5.90497C7.67785 6.00586 7.75352 6.17336 7.72699 6.11187C7.72655 6.11086 7.70684 6.06628 7.68702 6.00036C7.66805 5.93727 7.63126 5.79838 7.63126 5.61392H10.6313ZM10.1047 6.29104C9.76864 6.59346 9.38788 6.64914 9.16031 6.64318C8.96226 6.63798 8.82688 6.58746 8.81207 6.58218C8.79874 6.57742 8.76711 6.56435 8.84668 6.59788C8.87094 6.6081 8.92514 6.63081 8.98948 6.65296C9.04466 6.67196 9.17493 6.71482 9.3423 6.73451L9.69282 3.75505C9.83726 3.77205 9.94074 3.80765 9.96617 3.8164C10.0008 3.82831 10.0223 3.83779 10.0118 3.83336C10.0081 3.83182 10.004 3.83005 9.9931 3.82539C9.98394 3.82147 9.96976 3.8154 9.9543 3.80891C9.92387 3.79616 9.87627 3.77664 9.82011 3.75661C9.72639 3.72317 9.51098 3.65134 9.23892 3.64421C8.93734 3.6363 8.4886 3.70941 8.09776 4.06116L10.1047 6.29104ZM9.3423 6.73451C9.15468 6.71243 8.56981 6.59163 8.24393 5.96967C7.95173 5.412 8.12438 4.91525 8.16549 4.80557C8.2243 4.64865 8.29547 4.55089 8.30878 4.53245C8.33136 4.50117 8.34526 4.48651 8.34128 4.4909C8.29984 4.53663 8.23128 4.58962 8.29462 4.54239L10.0881 6.94728C10.1766 6.88125 10.3896 6.69816 10.5642 6.50552C10.6176 6.44655 10.8465 6.20047 10.9746 5.85848C11.0333 5.70208 11.2093 5.1652 10.9013 4.57732C10.5595 3.92516 9.93967 3.78409 9.69282 3.75505L9.3423 6.73451ZM8.29462 4.54238C8.29142 4.54477 8.28823 4.54714 8.28507 4.54948L10.0691 6.96137C10.0754 6.9567 10.0817 6.952 10.0881 6.94728L8.29462 4.54238ZM8.28508 4.54947C8.14344 4.65423 8.0362 4.7154 7.82663 4.81212L9.08381 7.536C9.42175 7.38003 9.71889 7.22041 10.0691 6.96138L8.28508 4.54947ZM7.82664 4.81212C7.93306 4.763 8.0064 4.75291 8.01082 4.75227C8.01921 4.75104 8.00044 4.75425 7.94398 4.75405C7.82461 4.75364 7.65598 4.73971 7.41257 4.71152L7.06743 7.6916C7.32445 7.72136 7.63487 7.75301 7.93372 7.75403C8.19648 7.75493 8.64746 7.73739 9.08381 7.536L7.82664 4.81212ZM7.41257 4.71152C7.02733 4.6669 6.33568 4.56356 5.77367 4.57943C5.48536 4.58758 5.06344 4.6264 4.65073 4.81681C4.17377 5.03688 3.71248 5.46541 3.54479 6.1362L6.45521 6.8638C6.41733 7.01534 6.33949 7.17123 6.21971 7.3054C6.10502 7.43388 5.98582 7.50475 5.90757 7.54085C5.77862 7.60034 5.72636 7.58197 5.85838 7.57824C5.96959 7.57509 6.12799 7.5838 6.35037 7.60683C6.58785 7.63142 6.78347 7.65871 7.06743 7.6916L7.41257 4.71152ZM3.54479 6.1362C3.4329 6.58375 3.55862 6.94754 3.58263 7.01981C3.62713 7.15376 3.68158 7.26193 3.71547 7.3254C3.78603 7.45756 3.86955 7.58329 3.93476 7.6775C4.07047 7.87356 4.24532 8.10135 4.3933 8.29322C4.55444 8.50216 4.68898 8.67527 4.78747 8.81127C4.81041 8.84294 4.82809 8.8681 4.84123 8.8874C4.85503 8.90767 4.85954 8.91523 4.85798 8.91263C4.85693 8.9109 4.85229 8.90317 4.84538 8.8904C4.83888 8.87838 4.8266 8.85496 4.81207 8.82246C4.80884 8.81524 4.69533 8.58423 4.69533 8.25797H7.69533C7.69533 8.05605 7.65527 7.89746 7.63107 7.81499C7.60407 7.72302 7.57327 7.64823 7.55078 7.59793C7.50647 7.49885 7.45868 7.41588 7.42634 7.3623C7.35975 7.25199 7.28235 7.14156 7.21721 7.05161C7.08466 6.8686 6.91207 6.64677 6.76885 6.46107C6.61247 6.25831 6.48571 6.09177 6.40145 5.97004C6.35667 5.90535 6.35061 5.89132 6.36185 5.91238C6.36608 5.9203 6.39844 5.98009 6.42964 6.07401C6.44571 6.1224 6.47125 6.20864 6.48633 6.32146C6.50039 6.42672 6.51507 6.62436 6.45521 6.8638L3.54479 6.1362ZM4.69533 8.25797C4.69533 8.38882 4.71406 8.50201 4.71425 8.50325C4.71949 8.53874 4.72542 8.5727 4.73029 8.59947C4.74034 8.6547 4.75303 8.71817 4.76631 8.78193C4.79325 8.91132 4.82871 9.07121 4.8657 9.22879C4.90215 9.38408 4.94349 9.55167 4.98221 9.6918C5.0008 9.75908 5.02433 9.84036 5.05076 9.91778C5.06326 9.95438 5.08467 10.0147 5.11438 10.0822C5.12914 10.1156 5.15448 10.1705 5.19078 10.2342C5.21706 10.2803 5.29719 10.4185 5.43934 10.5607L7.56066 8.43934C7.63769 8.51637 7.69109 8.58685 7.7227 8.63164C7.75613 8.679 7.78085 8.72005 7.79731 8.74894C7.82929 8.80506 7.84997 8.85042 7.85974 8.8726C7.87949 8.91742 7.88968 8.94796 7.88989 8.94859C7.89177 8.95408 7.88654 8.93874 7.87386 8.89285C7.85004 8.80663 7.81882 8.68166 7.78632 8.54322C7.75436 8.40707 7.72448 8.27205 7.70332 8.17042C7.69255 8.11866 7.6855 8.08259 7.68182 8.06237C7.67983 8.05141 7.68039 8.05368 7.68199 8.06451C7.68277 8.06975 7.68501 8.08522 7.68736 8.10697C7.68857 8.11814 7.6903 8.13548 7.69182 8.15705C7.69319 8.17667 7.69533 8.21256 7.69533 8.25797H4.69533ZM5.43934 10.5607C5.79648 10.9178 6.21285 10.9961 6.43237 11.0124C6.65663 11.029 6.84064 10.9953 6.94251 10.9723C7.15038 10.9252 7.33071 10.8471 7.44082 10.7958C7.68016 10.6843 7.93277 10.5341 8.13672 10.4052C8.35037 10.2701 8.55823 10.128 8.72017 10.0112C8.80022 9.95338 8.87869 9.89484 8.94563 9.84171C8.97758 9.81634 9.01988 9.78196 9.06302 9.74348C9.08395 9.72481 9.11784 9.69385 9.15587 9.6547C9.17302 9.63705 9.27733 9.53219 9.3721 9.37533L6.80436 7.82397C6.85858 7.73423 6.91046 7.67024 6.93528 7.64061C6.96415 7.60614 6.98887 7.57996 7.00417 7.56421C7.03422 7.53328 7.05767 7.51218 7.06585 7.50488C7.0835 7.48913 7.09111 7.48354 7.08042 7.49203C7.06206 7.5066 7.02344 7.536 6.96461 7.57846C6.84879 7.66204 6.69179 7.76946 6.53372 7.86938C6.36595 7.97543 6.24 8.04565 6.17418 8.0763C6.13171 8.09608 6.17781 8.06947 6.27984 8.04637C6.32879 8.03528 6.46697 8.00674 6.65375 8.02056C6.83579 8.03403 7.22304 8.10172 7.56066 8.43934L5.43934 10.5607ZM9.3721 9.37532C9.69224 8.84544 9.62414 8.3112 9.51546 7.99088C9.41749 7.70209 9.26096 7.49079 9.17309 7.38111C8.99431 7.15793 8.76294 6.95257 8.6467 6.848C8.4804 6.69841 8.41239 6.63667 8.37385 6.59396C8.35678 6.57505 8.40057 6.61858 8.45248 6.71331C8.49444 6.78988 8.64484 7.08358 8.58652 7.50017L5.61549 7.08423C5.54524 7.58602 5.72312 7.97528 5.82158 8.15497C5.93 8.35282 6.05934 8.50706 6.14651 8.60367C6.31642 8.79199 6.53159 8.98054 6.64034 9.07836C6.79912 9.2212 6.83464 9.26037 6.83172 9.25673C6.82452 9.24774 6.80374 9.22113 6.77786 9.17862C6.75303 9.13783 6.71083 9.06178 6.67452 8.95474C6.5979 8.72892 6.52875 8.28015 6.80436 7.82398L9.3721 9.37532ZM8.58652 7.50017C8.63839 7.12968 8.68518 6.72392 8.72775 6.39283L5.75224 6.01028C5.70134 6.40618 5.66524 6.72893 5.61549 7.08423L8.58652 7.50017ZM8.72775 6.39283C8.74421 6.26482 8.76092 6.14027 8.77865 6.01792L5.80967 5.58763C5.78892 5.73079 5.77 5.87217 5.75224 6.01028L8.72775 6.39283ZM8.77865 6.01792C8.79401 5.91193 8.85802 5.77655 9.11 5.31291L6.47413 3.88037C6.31685 4.16976 5.91913 4.83233 5.80967 5.58763L8.77865 6.01792ZM9.11 5.31292C9.07895 5.37005 9.03962 5.42762 9.09406 5.34464C9.11832 5.30765 9.16425 5.23731 9.21071 5.1565C9.25086 5.08665 9.32783 4.9473 9.38669 4.77439C9.41647 4.6869 9.45907 4.54112 9.47348 4.35911C9.48733 4.18406 9.48346 3.86989 9.31398 3.53094L6.6307 4.87257C6.47187 4.55492 6.47137 4.26723 6.48283 4.12241C6.49484 3.97063 6.5293 3.85885 6.54669 3.80774C6.56625 3.75029 6.58494 3.7103 6.59339 3.6929C6.60275 3.67365 6.60917 3.6625 6.60987 3.66129C6.60997 3.66112 6.60485 3.6698 6.58563 3.69911C6.58062 3.70673 6.56296 3.7335 6.55168 3.75092C6.54508 3.76112 6.5091 3.81603 6.47413 3.88037L9.11 5.31292ZM9.31398 3.53093C9.09246 3.08789 8.73222 2.89531 8.57876 2.82621C8.40654 2.74867 8.25714 2.72005 8.18355 2.70818C8.03128 2.68363 7.90232 2.68571 7.84771 2.68715C7.72087 2.69048 7.59771 2.70533 7.52758 2.71438C7.44819 2.72462 7.36791 2.73685 7.32436 2.74333C7.29799 2.74725 7.28713 2.74879 7.28314 2.74932C7.24945 2.75376 7.32391 2.74184 7.41955 2.74053L7.46064 5.74024C7.57135 5.73873 7.67297 5.72388 7.67537 5.72357C7.70746 5.71933 7.74161 5.71427 7.76601 5.71064C7.82402 5.70201 7.86836 5.69528 7.91138 5.68973C7.96365 5.68299 7.96068 5.68522 7.92656 5.68611C7.9183 5.68633 7.82883 5.68974 7.70602 5.66993C7.64715 5.66044 7.50997 5.63506 7.34707 5.56171C7.20293 5.49681 6.8491 5.30939 6.6307 4.87257L9.31398 3.53093ZM7.41955 2.74053C7.08543 2.7451 6.77661 2.74039 6.40136 2.74039V5.74039C6.71841 5.74039 7.10255 5.74515 7.46064 5.74024L7.41955 2.74053ZM6.40136 2.74039C5.96261 2.74039 5.54403 2.78218 5.18099 2.82493L5.53185 5.80434C5.86339 5.7653 6.14216 5.74039 6.40136 5.74039V2.74039ZM5.18099 2.82493C4.89478 2.85863 4.74257 2.88009 4.49052 2.9089L4.83116 5.8895C5.04115 5.8655 5.35288 5.82542 5.53185 5.80434L5.18099 2.82493ZM4.49052 2.9089C4.42225 2.9167 4.15156 2.94451 3.87861 3.00868C3.74469 3.04016 3.54619 3.09451 3.3424 3.19081C3.19044 3.26262 2.7522 3.48456 2.49723 3.9945L5.18051 5.33614C5.06782 5.56151 4.92066 5.7006 4.83015 5.77286C4.73796 5.84646 4.66013 5.88621 4.62417 5.9032C4.55695 5.93496 4.52641 5.93817 4.56512 5.92907C4.63742 5.91208 4.73063 5.90099 4.83116 5.8895L4.49052 2.9089ZM11.6432 5.93236C11.8021 5.75359 11.8906 5.57628 11.9389 5.46273C11.9634 5.40528 11.9809 5.35581 11.9921 5.32291C12.0025 5.29229 12.0116 5.26277 12.0136 5.25639C12.0177 5.24363 12.0155 5.25092 12.0115 5.26225C12.0071 5.27514 11.9969 5.30355 11.9807 5.34035C11.9483 5.41407 11.8826 5.54286 11.7615 5.67743L9.53164 3.67053C9.37698 3.84237 9.28686 4.01369 9.23462 4.13244C9.20853 4.19176 9.18962 4.24331 9.17703 4.27962C9.16498 4.31439 9.15528 4.34539 9.15186 4.35628C9.14643 4.37355 9.14823 4.36762 9.15075 4.36019C9.15404 4.35048 9.16327 4.32379 9.17833 4.28838C9.20788 4.2189 9.2735 4.08268 9.40099 3.93926L11.6432 5.93236ZM11.7615 5.67743C11.7116 5.73288 11.6629 5.77558 11.6817 5.75845C11.6842 5.75617 11.6946 5.74674 11.7068 5.73518C11.7185 5.7241 11.7421 5.70159 11.77 5.67207C11.7717 5.67027 11.9969 5.45273 12.1122 5.09687C12.1853 4.87146 12.242 4.50514 12.0871 4.09843C11.9336 3.6954 11.6521 3.46266 11.4572 3.34533C11.1415 3.15525 10.8376 3.13702 10.816 3.13497C10.6797 3.12205 10.5548 3.13066 10.5504 3.13088L10.7041 6.12694C10.746 6.12479 10.6512 6.1328 10.5329 6.12158C10.5203 6.12039 10.2224 6.10359 9.91003 5.91557C9.71684 5.79928 9.43645 5.56772 9.2835 5.16606C9.12914 4.76071 9.1858 4.39592 9.25828 4.17221C9.32561 3.96441 9.42295 3.82089 9.46887 3.75749C9.52096 3.68558 9.56829 3.63407 9.59163 3.60942C9.61726 3.58235 9.63812 3.56247 9.64685 3.55422C9.652 3.54936 9.65606 3.5456 9.65834 3.54351C9.65954 3.5424 9.66049 3.54153 9.66108 3.54099C9.66167 3.54045 9.66205 3.5401 9.6621 3.54006C9.66666 3.53591 9.59969 3.59492 9.53163 3.67053L11.7615 5.67743ZM10.5504 3.13088C10.0119 3.1585 9.45977 3.23278 8.92503 3.35619L9.5996 6.27936C9.95432 6.1975 10.3316 6.14604 10.7041 6.12694L10.5504 3.13088ZM8.92502 3.35619C8.91597 3.35828 8.90704 3.36036 8.89825 3.36243L9.58669 6.28237C9.59066 6.28143 9.59496 6.28043 9.5996 6.27936L8.92502 3.35619ZM8.89825 3.36243C8.82017 3.38084 8.7331 3.40307 8.65198 3.42944C8.6503 3.42999 8.50846 3.47256 8.35807 3.55723C8.32159 3.57777 8.1928 3.65051 8.05707 3.77994C7.99066 3.84327 7.8532 3.98469 7.74465 4.20641C7.62728 4.44615 7.50942 4.86197 7.66861 5.34016C7.82127 5.79871 8.14088 6.04673 8.32822 6.15758C8.51388 6.26744 8.68038 6.31149 8.76165 6.32988C8.92734 6.36737 9.0611 6.36724 9.10325 6.367C9.27149 6.36605 9.4087 6.33497 9.41878 6.33288C9.46872 6.32251 9.51491 6.31072 9.55497 6.29941C9.63523 6.27676 9.7279 6.24565 9.82572 6.20436L8.65922 3.44044C8.68693 3.42874 8.71283 3.4199 8.74031 3.41214C8.75397 3.40829 8.77726 3.40209 8.80913 3.39548C8.82473 3.39224 8.85081 3.38714 8.88426 3.38223C8.90503 3.37918 8.98347 3.36763 9.08624 3.36705C9.12662 3.36682 9.25899 3.36658 9.42369 3.40384C9.50448 3.42212 9.67059 3.46604 9.85596 3.57572C10.043 3.68641 10.3624 3.93423 10.515 4.39255C10.6741 4.87051 10.5563 5.28608 10.4391 5.52554C10.3307 5.74697 10.1935 5.88807 10.1274 5.95105C9.9924 6.07979 9.86478 6.15173 9.82993 6.17135C9.73648 6.22397 9.65921 6.25352 9.64281 6.25986C9.61302 6.27138 9.59023 6.27897 9.57945 6.28247C9.54402 6.29399 9.53791 6.29387 9.58669 6.28237L8.89825 3.36243ZM9.82572 6.20436C9.94551 6.15381 10.1399 6.06029 10.3339 5.90055L8.42679 3.58476C8.48872 3.53376 8.5421 3.50077 8.57606 3.48158C8.61127 3.46169 8.6399 3.44859 8.65922 3.44044L9.82572 6.20436ZM10.3339 5.90055C10.2451 5.97368 10.1634 6.01361 10.123 6.03079C10.1065 6.03781 10.0991 6.04 10.1112 6.03583C10.117 6.03384 10.1249 6.03117 10.1378 6.02688C10.1457 6.02424 10.1706 6.01604 10.1852 6.01116L9.23652 3.16511C9.19199 3.17995 8.78468 3.29003 8.42679 3.58476L10.3339 5.90055Z" fill="#2BFA62"/>
<path d="M4 5.5H7M7 5.5V4M7 5.5V6.7M7 6.7H4.9M7 6.7V9.1M7 9.1L5.5 10.3H8.5L7 9.1Z" stroke="white" stroke-width="0.6"/>
</svg>
