<svg width="13" height="16" viewBox="0 0 13 16" fill="none" xmlns="http://www.w3.org/2000/svg">
<path d="M6.5002 14L5.82938 15.3416C6.25167 15.5528 6.74872 15.5528 7.17102 15.3416L6.5002 14ZM11.3002 3.8H12.8002C12.8002 3.17473 12.4123 2.61505 11.8269 2.39551L11.3002 3.8ZM6.5002 2L7.02688 0.595506C6.6873 0.468165 6.31309 0.468165 5.97351 0.595506L6.5002 2ZM1.7002 3.8L1.17351 2.39551C0.588055 2.61505 0.200195 3.17473 0.200195 3.8H1.7002ZM7.16622 4.9279C7.97263 4.73816 8.47253 3.93062 8.28279 3.12421C8.09305 2.31781 7.28551 1.81791 6.4791 2.00765L7.16622 4.9279ZM5.88051 3.90988L5.22716 2.55964L5.22716 2.55964L5.88051 3.90988ZM5.50922 4.08586L5.59243 5.58355L5.59243 5.58355L5.50922 4.08586ZM5.02849 4.33696L5.97834 5.4979L5.97834 5.4979L5.02849 4.33696ZM4.34816 4.87779L5.59623 5.70984L5.59623 5.70984L4.34816 4.87779ZM4.07989 5.06021L3.35143 3.74898L3.35143 3.74898L4.07989 5.06021ZM3.87815 5.24478L4.73197 6.47807L4.73197 6.47807L3.87815 5.24478ZM3.3502 7.6549L1.89008 7.99846L3.3502 7.6549ZM3.5176 8.48116L2.11177 9.00426L2.11177 9.00427L3.5176 8.48116ZM3.63779 8.88035L5.03579 8.33668L5.03579 8.33668L3.63779 8.88035ZM3.81806 9.26236L2.37092 9.65704L2.37092 9.65704L3.81806 9.26236ZM4.37177 10.2453L5.63726 9.43998L5.63726 9.43998L4.37177 10.2453ZM5.7002 12L5.22585 13.423L5.22585 13.423L5.7002 12ZM7.78843 11.078L6.64106 10.1118L6.64106 10.1118L7.78843 11.078ZM7.96441 10.726L9.24433 11.5082L9.24433 11.5082L7.96441 10.726ZM9.41091 9.79131L8.1475 8.98273L8.1475 8.98273L9.41091 9.79131ZM9.37228 8.10344L10.7287 8.74395L10.7287 8.74395L9.37228 8.10344ZM9.41091 7.06042L8.20465 7.952L8.20465 7.952L9.41091 7.06042ZM9.23922 6.55822L7.89758 7.22904L7.89758 7.22904L9.23922 6.55822ZM9.08255 6.16977L10.3899 5.43437L10.3899 5.43437L9.08255 6.16977ZM8.94734 5.86287L7.82623 6.85942L7.82623 6.85942L8.94734 5.86287ZM8.80141 5.1761L7.79796 4.06116L7.79796 4.06116L8.80141 5.1761ZM9.21776 5.24478L9.39302 3.75505L9.39302 3.75505L9.21776 5.24478ZM8.89154 5.74483L9.78827 6.94728L9.78827 6.94728L8.89154 5.74483ZM8.15542 6.17406L8.784 7.536L8.784 7.536L8.15542 6.17406ZM4.7002 6.5L6.15541 6.8638L6.15541 6.8638L4.7002 6.5ZM6.2002 9.5L5.13953 10.5607L5.13954 10.5607L6.2002 9.5ZM7.78843 8.59965L9.0723 9.37533L9.0723 9.37532L7.78843 8.59965ZM6.8012 7.2922L8.28671 7.50017L8.28671 7.50017L6.8012 7.2922ZM6.99435 5.80278L5.50986 5.58763L5.50986 5.58763L6.99435 5.80278ZM7.49226 4.59664L6.17432 3.88037L6.17432 3.88037L7.49226 4.59664ZM7.67253 4.20175L9.01418 3.53094L9.01418 3.53093L7.67253 4.20175ZM7.14029 4.24039L7.16084 5.74024L7.16084 5.74024L7.14029 4.24039ZM4.36104 4.3992L4.19072 2.9089L4.19072 2.9089L4.36104 4.3992ZM2.19742 3.9945C1.82694 4.73547 2.12727 5.63648 2.86824 6.00696C3.60921 6.37745 4.51022 6.07711 4.8807 5.33614L2.19742 3.9945ZM9.10118 3.93926C8.5508 4.55844 8.60658 5.50655 9.22575 6.05692C9.84492 6.6073 10.793 6.55153 11.3434 5.93236L9.10118 3.93926ZM10.3468 4.67398L11.4617 5.67743L11.4617 5.67743L10.3468 4.67398ZM10.3275 4.62891L10.2506 3.13088L10.2506 3.13088L10.3275 4.62891ZM8.96251 4.81777L8.62522 3.35619L8.62522 3.35619L8.96251 4.81777ZM8.35942 3.44044C7.59618 3.76256 7.23858 4.64241 7.5607 5.40565C7.88282 6.16889 8.76268 6.52648 9.52591 6.20436L8.35942 3.44044ZM9.08055 4.74266L8.12699 3.58476L8.12699 3.58476L9.08055 4.74266ZM9.8854 6.01116C10.6713 5.74919 11.0961 4.89971 10.8341 4.11379C10.5721 3.32788 9.72263 2.90314 8.93671 3.16511L9.8854 6.01116ZM6.5002 14C7.17102 15.3416 7.17143 15.3414 7.17186 15.3412C7.17203 15.3411 7.17248 15.3409 7.17281 15.3407C7.17349 15.3404 7.17423 15.34 7.17505 15.3396C7.1767 15.3388 7.17863 15.3378 7.18086 15.3367C7.18532 15.3344 7.19093 15.3316 7.19767 15.3281C7.21116 15.3212 7.22915 15.3119 7.25135 15.3003C7.29574 15.277 7.35707 15.2442 7.43292 15.2022C7.58443 15.1183 7.79504 14.9971 8.04519 14.8407C8.54238 14.53 9.21163 14.0706 9.88795 13.4789C11.1776 12.3504 12.8002 10.4697 12.8002 8H9.8002C9.8002 9.13034 9.02281 10.2496 7.91244 11.2211C7.38876 11.6794 6.85801 12.045 6.4552 12.2968C6.25535 12.4217 6.09096 12.5161 5.97997 12.5775C5.92457 12.6082 5.88278 12.6305 5.85685 12.6441C5.8439 12.6509 5.83494 12.6555 5.83026 12.6579C5.82792 12.6591 5.82665 12.6597 5.82649 12.6598C5.82641 12.6598 5.82661 12.6597 5.82709 12.6595C5.82733 12.6594 5.82764 12.6592 5.82802 12.659C5.82821 12.6589 5.82855 12.6588 5.82864 12.6587C5.829 12.6585 5.82938 12.6584 6.5002 14ZM12.8002 8V3.8H9.8002V8H12.8002ZM11.8269 2.39551L7.02688 0.595506L5.97351 3.40449L10.7735 5.20449L11.8269 2.39551ZM5.97351 0.595506L1.17351 2.39551L2.22688 5.20449L7.02688 3.40449L5.97351 0.595506ZM0.200195 3.8V8H3.2002V3.8H0.200195ZM0.200195 8C0.200195 10.4697 1.82281 12.3504 3.11244 13.4789C3.78876 14.0706 4.45801 14.53 4.9552 14.8407C5.20535 14.9971 5.41596 15.1183 5.56747 15.2022C5.64332 15.2442 5.70465 15.277 5.74904 15.3003C5.77124 15.3119 5.78923 15.3212 5.80272 15.3281C5.80946 15.3316 5.81508 15.3344 5.81953 15.3367C5.82176 15.3378 5.82369 15.3388 5.82534 15.3396C5.82616 15.34 5.82691 15.3404 5.82758 15.3407C5.82792 15.3409 5.82836 15.3411 5.82853 15.3412C5.82896 15.3414 5.82938 15.3416 6.5002 14C7.17102 12.6584 7.17139 12.6585 7.17175 12.6587C7.17184 12.6588 7.17218 12.6589 7.17237 12.659C7.17276 12.6592 7.17307 12.6594 7.17331 12.6595C7.17378 12.6597 7.17398 12.6598 7.1739 12.6598C7.17374 12.6597 7.17248 12.6591 7.17014 12.6579C7.16545 12.6555 7.15649 12.6509 7.14354 12.6441C7.11762 12.6305 7.07582 12.6082 7.02042 12.5775C6.90943 12.5161 6.74504 12.4217 6.54519 12.2968C6.14238 12.045 5.61163 11.6794 5.08795 11.2211C3.97758 10.2496 3.2002 9.13034 3.2002 8H0.200195ZM6.4791 2.00765C6.12598 2.09074 5.82976 2.23747 5.64276 2.33593C5.37559 2.47662 5.36361 2.49362 5.22716 2.55964L6.53385 5.26012C6.64611 5.2058 6.75074 5.14893 6.83094 5.10485C6.92135 5.05516 6.97773 5.02348 7.04052 4.99042C7.16783 4.92338 7.19256 4.9217 7.16622 4.9279L6.4791 2.00765ZM5.22716 2.55964C5.1772 2.58382 5.13492 2.60696 5.10682 2.62274C5.07789 2.63899 5.0515 2.65451 5.03378 2.66499C5.00963 2.67927 5.005 2.6821 4.98914 2.69143C4.9778 2.6981 4.97214 2.70131 4.96954 2.70276C4.95934 2.70844 4.98623 2.69251 5.03589 2.67236C5.06265 2.66151 5.10724 2.6448 5.16616 2.62909C5.22371 2.61375 5.3131 2.59445 5.42602 2.58817L5.59243 5.58355C5.85615 5.5689 6.0624 5.49339 6.16355 5.45236C6.27802 5.40593 6.37285 5.35512 6.42979 5.32338C6.48534 5.29243 6.54402 5.2572 6.56063 5.24738C6.59687 5.22595 6.57412 5.24063 6.53385 5.26012L5.22716 2.55964ZM5.42602 2.58817C5.00179 2.61174 4.66453 2.7949 4.55642 2.85413C4.39227 2.94407 4.24622 3.04525 4.13982 3.12741L5.9734 5.50186C5.97335 5.5019 5.97502 5.50061 5.97817 5.49835C5.98127 5.49613 5.98487 5.49363 5.98864 5.49112C5.99736 5.48532 6.00102 5.48342 5.9979 5.48513C5.99739 5.48541 5.9726 5.4993 5.92662 5.51655C5.90244 5.52562 5.86399 5.53881 5.81343 5.55117C5.76421 5.56321 5.68841 5.57822 5.59243 5.58355L5.42602 2.58817ZM4.13983 3.12741C4.11953 3.14309 4.09903 3.15933 4.07863 3.17603L5.97834 5.4979C5.97512 5.50053 5.97345 5.50182 5.9734 5.50186L4.13983 3.12741ZM4.07863 3.17603C4.08596 3.17003 4.07847 3.17695 4.03013 3.20865C4.01123 3.22105 3.89301 3.29676 3.82699 3.34136C3.66815 3.44864 3.3486 3.67296 3.10008 4.04574L5.59623 5.70984C5.54755 5.78287 5.50215 5.8257 5.48519 5.84071C5.47025 5.85393 5.47012 5.85173 5.50615 5.8274C5.52337 5.81577 5.54377 5.80244 5.57314 5.78348C5.59858 5.76706 5.63864 5.74137 5.67554 5.71716C5.75023 5.66817 5.86223 5.5929 5.97834 5.4979L4.07863 3.17603ZM3.10008 4.04574C3.19793 3.89897 3.30005 3.8093 3.34988 3.76884C3.40354 3.72528 3.44458 3.7005 3.455 3.69427C3.46663 3.68732 3.47044 3.68572 3.4513 3.69576C3.44716 3.69793 3.39235 3.72624 3.35143 3.74898L4.80835 6.37145C4.80778 6.37176 4.8001 6.37594 4.84558 6.35207C4.87608 6.33606 4.93202 6.30648 4.99404 6.26942C5.05484 6.23308 5.14452 6.17605 5.24081 6.09787C5.33328 6.0228 5.47202 5.89616 5.59623 5.70984L3.10008 4.04574ZM3.35143 3.74898C3.18717 3.84023 3.07105 3.94195 3.01338 3.99516C2.95315 4.05074 2.90347 4.10401 2.88838 4.12005C2.86113 4.14903 2.87034 4.13898 2.88081 4.12872C2.89282 4.11697 2.9437 4.06732 3.02434 4.01149L4.73197 6.47807C4.79255 6.43613 4.84294 6.39558 4.88229 6.36176C4.92178 6.32782 4.95485 6.29659 4.9801 6.27185C5.00533 6.24714 5.02661 6.22511 5.04138 6.20963C5.0546 6.19576 5.06958 6.17976 5.07368 6.17541C5.08082 6.16781 5.0806 6.16813 5.07784 6.17095C5.07484 6.17401 5.06408 6.18494 5.04782 6.19994C5.03175 6.21478 5.00465 6.23884 4.96804 6.26691C4.93175 6.29474 4.87814 6.33268 4.80836 6.37145L3.35143 3.74898ZM3.02434 4.01149C1.98397 4.73175 1.84591 5.8355 1.84591 6.49384H4.84591C4.84591 6.42329 4.84978 6.37487 4.8542 6.3434C4.85856 6.31234 4.86219 6.30716 4.85761 6.31951C4.85232 6.33376 4.83888 6.36375 4.81224 6.3991C4.78479 6.43555 4.755 6.46212 4.73197 6.47807L3.02434 4.01149ZM1.84591 6.49384C1.84591 6.63809 1.83338 6.6892 1.81877 7.00932C1.80855 7.23338 1.79855 7.60949 1.89008 7.99846L4.81033 7.31134C4.8196 7.35075 4.80746 7.32557 4.81565 7.1461C4.81955 7.06065 4.82499 6.98681 4.83221 6.86903C4.83852 6.76605 4.84591 6.63209 4.84591 6.49384H1.84591ZM1.89008 7.99846C1.90324 8.05441 1.90705 8.09672 1.93976 8.3038C1.96378 8.45588 2.00853 8.7268 2.11177 9.00426L4.92343 7.95806C4.93294 7.98362 4.92418 7.96971 4.90302 7.83577C4.89833 7.80607 4.89378 7.77585 4.88816 7.73861C4.88284 7.70341 4.87653 7.66173 4.8697 7.61919C4.85632 7.53578 4.83754 7.427 4.81033 7.31134L1.89008 7.99846ZM2.11177 9.00427C2.10514 8.98646 2.10376 8.97669 2.12569 9.06046C2.14142 9.12054 2.17856 9.2666 2.23978 9.42402L5.03579 8.33668C5.04555 8.36177 5.04711 8.37412 5.02787 8.30063C5.01483 8.25083 4.97909 8.10763 4.92343 7.95806L2.11177 9.00427ZM2.23978 9.42402C2.27952 9.52621 2.32158 9.61103 2.35072 9.66722C2.36573 9.69614 2.37974 9.72207 2.39032 9.74149C2.39559 9.75119 2.40083 9.76075 2.40488 9.76815C2.40926 9.77614 2.4126 9.78225 2.41569 9.78795C2.42961 9.81355 2.42679 9.80949 2.41977 9.79426C2.41224 9.77791 2.39058 9.72915 2.37092 9.65704L5.26521 8.86768C5.22806 8.73147 5.1814 8.61906 5.14464 8.53923C5.10839 8.46053 5.0721 8.39319 5.05159 8.35545C5.02358 8.30391 5.0214 8.30056 5.01372 8.28575C5.00982 8.27823 5.02116 8.29904 5.03579 8.33668L2.23978 9.42402ZM2.37092 9.65704C2.47633 10.0436 2.65502 10.358 2.78695 10.5688C2.85483 10.6773 2.92367 10.7787 2.97637 10.8562C3.03439 10.9416 3.07258 10.9977 3.10627 11.0506L5.63726 9.43998C5.57374 9.34017 5.50628 9.2416 5.45746 9.16977C5.40333 9.09013 5.36414 9.03185 5.33007 8.9774C5.25808 8.86236 5.25713 8.83806 5.26521 8.86768L2.37092 9.65704ZM3.10627 11.0506C3.15017 11.1196 3.20905 11.2253 3.31933 11.4212C3.41686 11.5945 3.54227 11.8153 3.68198 12.0339C3.8186 12.2477 3.99559 12.5022 4.20798 12.7323C4.40072 12.9412 4.73967 13.261 5.22585 13.423L6.17454 10.577C6.39682 10.6511 6.47373 10.764 6.41284 10.698C6.37162 10.6533 6.30342 10.5648 6.20987 10.4184C6.1194 10.2769 6.02965 10.1203 5.9336 9.94963C5.85029 9.80163 5.73718 9.597 5.63726 9.43998L3.10627 11.0506ZM5.22585 13.423C6.18649 13.7432 6.96856 13.2917 7.21197 13.1583C7.39831 13.0562 7.42608 13.0377 7.47664 13.0157C7.49805 13.0064 7.42666 13.0416 7.30125 13.0416V10.0416C6.87491 10.0416 6.52497 10.1581 6.2798 10.2648C6.0638 10.3587 5.83699 10.4909 5.77035 10.5274C5.50778 10.6712 5.79026 10.4489 6.17454 10.577L5.22585 13.423ZM7.30125 13.0416C7.64593 13.0416 7.98005 12.9485 8.27302 12.7649C8.54504 12.5944 8.71627 12.3865 8.81229 12.2534C8.89843 12.134 8.97374 12.0004 8.98272 11.9851C9.01268 11.9342 8.98841 11.9817 8.93579 12.0442L6.64106 10.1118C6.51442 10.2622 6.42776 10.4116 6.3969 10.4641C6.34505 10.5522 6.3611 10.5235 6.37948 10.498C6.40774 10.4589 6.50269 10.3339 6.67985 10.2229C6.87797 10.0987 7.09866 10.0416 7.30125 10.0416V13.0416ZM8.93579 12.0442C9.04769 11.9113 9.12274 11.7836 9.17126 11.6903C9.21878 11.599 9.25273 11.5171 9.26974 11.4756C9.27645 11.4592 9.28895 11.4282 9.29049 11.4244C9.29524 11.4127 9.29631 11.4103 9.29571 11.4117C9.29554 11.4121 9.27841 11.4524 9.24433 11.5082L6.68449 9.94385C6.61697 10.0543 6.57124 10.154 6.54445 10.2157C6.53054 10.2476 6.51879 10.2763 6.51087 10.2959C6.507 10.3054 6.50292 10.3155 6.50034 10.3219C6.49736 10.3293 6.49535 10.3342 6.49363 10.3384C6.48513 10.3592 6.49268 10.3388 6.51007 10.3054C6.52845 10.27 6.56963 10.1966 6.64106 10.1118L8.93579 12.0442ZM9.24433 11.5082C9.16507 11.6379 9.08489 11.72 9.05238 11.752C9.01403 11.7897 8.98551 11.812 8.97765 11.8181C8.96343 11.8291 8.97096 11.8221 9.01641 11.794C9.10758 11.7376 9.23438 11.6674 9.40772 11.5723C9.56076 11.4883 9.76067 11.3793 9.92976 11.2757C10.0146 11.2237 10.1203 11.1558 10.2231 11.0776C10.29 11.0267 10.506 10.8628 10.6743 10.5999L8.1475 8.98273C8.22701 8.8585 8.30574 8.7803 8.33662 8.75075C8.37346 8.7155 8.40038 8.69484 8.40701 8.68979C8.41883 8.68081 8.40908 8.68906 8.36232 8.71772C8.26813 8.77543 8.13978 8.84609 7.9648 8.94208C7.81012 9.02694 7.60914 9.13692 7.43795 9.24284C7.35222 9.29588 7.24494 9.36555 7.14042 9.44652C7.07205 9.49948 6.85198 9.66977 6.68449 9.94385L9.24433 11.5082ZM10.6743 10.5999C10.949 10.1707 11.0569 9.70918 11.0267 9.25638C11.001 8.87029 10.8728 8.54653 10.8294 8.4313C10.7025 8.09369 10.8801 8.42322 10.7287 8.74395L8.01591 7.46293C7.79819 7.92398 7.76177 8.37493 7.81935 8.77166C7.86796 9.10652 7.9906 9.40527 8.02131 9.48697C8.0764 9.63351 8.04095 9.56958 8.03338 9.456C8.02136 9.2757 8.07284 9.09939 8.1475 8.98273L10.6743 10.5999ZM10.7287 8.74395C10.8957 8.39015 10.9586 7.96045 10.9784 7.67975C10.9902 7.51331 10.9934 7.30847 10.9679 7.09567C10.9486 6.93448 10.8899 6.5378 10.6172 6.16883L8.20465 7.952C8.08997 7.79686 8.04044 7.65809 8.02034 7.59279C7.99826 7.52105 7.99136 7.47036 7.98928 7.45298C7.98539 7.42059 7.98894 7.42483 7.98585 7.46875C7.98312 7.50744 7.97735 7.54611 7.97203 7.57161C7.96952 7.58363 7.96895 7.58382 7.97215 7.5732C7.97394 7.56726 7.98648 7.52525 8.01591 7.46293L10.7287 8.74395ZM10.6172 6.16883C10.7004 6.28142 10.7427 6.38218 10.7623 6.43684C10.7799 6.48561 10.7853 6.51593 10.7781 6.48407C10.7766 6.47747 10.775 6.47013 10.7724 6.4587C10.7702 6.44849 10.767 6.43394 10.7636 6.41896C10.7569 6.38905 10.7468 6.34562 10.7338 6.29675C10.7084 6.20131 10.6633 6.05225 10.5809 5.8874L7.89758 7.22904C7.85448 7.14284 7.83732 7.07804 7.83496 7.06919C7.83348 7.06362 7.83376 7.06409 7.83695 7.07823C7.83854 7.08529 7.8402 7.09282 7.84281 7.10468C7.84516 7.11533 7.84841 7.13005 7.85189 7.14546C7.86459 7.20164 7.89159 7.31908 7.9389 7.45082C7.98833 7.58845 8.06866 7.76802 8.20465 7.952L10.6172 6.16883ZM10.5809 5.8874C10.5966 5.91897 10.604 5.93917 10.6028 5.93606C10.5997 5.92786 10.5975 5.9211 10.5818 5.87561C10.5607 5.81398 10.4992 5.62864 10.3899 5.43437L7.77519 6.90516C7.75185 6.86367 7.73921 6.83313 7.73563 6.82424C7.73303 6.81779 7.73387 6.81908 7.74449 6.85C7.75156 6.87058 7.77161 6.9301 7.79303 6.98737C7.81637 7.04974 7.85036 7.1346 7.89758 7.22904L10.5809 5.8874ZM10.3899 5.43437C10.4346 5.51378 10.4559 5.57373 10.4567 5.57596C10.4582 5.58015 10.4582 5.58022 10.4546 5.56957C10.4533 5.5657 10.444 5.53826 10.438 5.52068C10.4246 5.482 10.3939 5.39349 10.3477 5.29443C10.3027 5.19787 10.217 5.03346 10.0685 4.86632L7.82623 6.85942C7.7654 6.79098 7.72178 6.72764 7.69191 6.67911C7.66201 6.63052 7.6415 6.58958 7.62879 6.56231C7.61598 6.53485 7.60786 6.51426 7.6043 6.50499C7.60076 6.49577 7.59941 6.4916 7.60151 6.49768C7.60247 6.50047 7.60375 6.50422 7.60587 6.51052C7.60753 6.51541 7.6109 6.52542 7.61372 6.53373C7.61971 6.55137 7.62934 6.57954 7.64096 6.61114C7.65267 6.64301 7.66888 6.68519 7.6896 6.73272C7.71023 6.78007 7.73829 6.83956 7.77519 6.90516L10.3899 5.43437ZM10.0685 4.86632C10.1215 4.92604 10.1541 4.97414 10.1684 4.99598C10.1856 5.0223 10.1995 5.04654 10.2114 5.06982L7.54314 6.44103C7.60054 6.55274 7.69352 6.71012 7.82623 6.85942L10.0685 4.86632ZM10.2114 5.06982C10.2241 5.09456 10.2452 5.13862 10.2663 5.20128C10.2772 5.23357 10.2917 5.28162 10.3042 5.34251C10.3161 5.40037 10.3315 5.49474 10.3315 5.61392H7.33145C7.33145 6.03655 7.50511 6.36704 7.54313 6.44102L10.2114 5.06982ZM10.3315 5.61392C10.3315 5.40108 10.2888 5.23167 10.2601 5.13636C10.2306 5.03822 10.1974 4.95971 10.1818 4.92347C10.173 4.9032 10.1649 4.88516 10.1605 4.87538C10.1548 4.86262 10.1537 4.86024 10.1522 4.8569C10.1496 4.85089 10.1594 4.8725 10.1716 4.90688C10.1909 4.96176 10.2633 5.17491 10.2288 5.46546C10.2105 5.61997 10.1637 5.78089 10.0818 5.9351C10.0008 6.0876 9.90051 6.20495 9.80485 6.29104L7.79796 4.06116C7.50465 4.32514 7.29977 4.68998 7.2497 5.11197C7.206 5.48024 7.29577 5.77265 7.34246 5.90497C7.37805 6.00586 7.45371 6.17336 7.42718 6.11187C7.42675 6.11086 7.40704 6.06628 7.38722 6.00036C7.36824 5.93727 7.33145 5.79838 7.33145 5.61392H10.3315ZM9.80485 6.29104C9.46883 6.59346 9.08808 6.64914 8.8605 6.64318C8.66246 6.63798 8.52708 6.58746 8.51227 6.58218C8.49893 6.57742 8.4673 6.56435 8.54687 6.59788C8.57113 6.6081 8.62534 6.63081 8.68968 6.65296C8.74486 6.67196 8.87513 6.71482 9.0425 6.73451L9.39302 3.75505C9.53745 3.77205 9.64093 3.80765 9.66637 3.8164C9.70096 3.82831 9.72247 3.83779 9.71196 3.83336C9.70831 3.83182 9.70417 3.83005 9.69329 3.82539C9.68413 3.82147 9.66996 3.8154 9.65449 3.80891C9.62406 3.79616 9.57647 3.77664 9.52031 3.75661C9.42658 3.72317 9.21117 3.65134 8.93912 3.64421C8.63753 3.6363 8.1888 3.70941 7.79796 4.06116L9.80485 6.29104ZM9.0425 6.73451C8.85487 6.71243 8.27001 6.59163 7.94412 5.96967C7.65192 5.412 7.82457 4.91525 7.86568 4.80557C7.9245 4.64865 7.99567 4.55089 8.00898 4.53245C8.03155 4.50117 8.04545 4.48651 8.04148 4.4909C8.00003 4.53663 7.93148 4.58962 7.99481 4.54239L9.78827 6.94728C9.87681 6.88125 10.0898 6.69816 10.2644 6.50552C10.3178 6.44655 10.5467 6.20047 10.6748 5.85848C10.7335 5.70208 10.9095 5.1652 10.6014 4.57732C10.2597 3.92516 9.63986 3.78409 9.39302 3.75505L9.0425 6.73451ZM7.99482 4.54238C7.99161 4.54477 7.98843 4.54714 7.98527 4.54948L9.7693 6.96137C9.77561 6.9567 9.78194 6.952 9.78827 6.94728L7.99482 4.54238ZM7.98528 4.54947C7.84364 4.65423 7.73639 4.7154 7.52683 4.81212L8.784 7.536C9.12195 7.38003 9.41909 7.22041 9.76929 6.96138L7.98528 4.54947ZM7.52683 4.81212C7.63326 4.763 7.70659 4.75291 7.71101 4.75227C7.7194 4.75104 7.70063 4.75425 7.64418 4.75405C7.52481 4.75364 7.35617 4.73971 7.11276 4.71152L6.76762 7.6916C7.02464 7.72136 7.33506 7.75301 7.63392 7.75403C7.89667 7.75493 8.34766 7.73739 8.784 7.536L7.52683 4.81212ZM7.11276 4.71152C6.72752 4.6669 6.03588 4.56356 5.47386 4.57943C5.18556 4.58758 4.76363 4.6264 4.35093 4.81681C3.87397 5.03688 3.41268 5.46541 3.24498 6.1362L6.15541 6.8638C6.11753 7.01534 6.03969 7.17123 5.91991 7.3054C5.80521 7.43388 5.68601 7.50475 5.60776 7.54085C5.47881 7.60034 5.42655 7.58197 5.55858 7.57824C5.66978 7.57509 5.82819 7.5838 6.05057 7.60683C6.28804 7.63142 6.48366 7.65871 6.76762 7.6916L7.11276 4.71152ZM3.24498 6.1362C3.13309 6.58375 3.25882 6.94754 3.28282 7.01981C3.32732 7.15376 3.38177 7.26193 3.41566 7.3254C3.48622 7.45756 3.56974 7.58329 3.63495 7.6775C3.77067 7.87356 3.94551 8.10135 4.0935 8.29322C4.25464 8.50216 4.38917 8.67527 4.48767 8.81127C4.5106 8.84294 4.52829 8.8681 4.54143 8.8874C4.55522 8.90767 4.55974 8.91523 4.55817 8.91263C4.55712 8.9109 4.55249 8.90317 4.54558 8.8904C4.53908 8.87838 4.52679 8.85496 4.51226 8.82246C4.50903 8.81524 4.39553 8.58423 4.39553 8.25797H7.39553C7.39553 8.05605 7.35547 7.89746 7.33126 7.81499C7.30427 7.72302 7.27346 7.64823 7.25097 7.59793C7.20667 7.49885 7.15887 7.41588 7.12653 7.3623C7.05994 7.25199 6.98254 7.14156 6.9174 7.05161C6.78486 6.8686 6.61227 6.64677 6.46904 6.46107C6.31267 6.25831 6.18591 6.09177 6.10165 5.97004C6.05687 5.90535 6.05081 5.89132 6.06205 5.91238C6.06628 5.9203 6.09863 5.98009 6.12983 6.07401C6.14591 6.1224 6.17145 6.20864 6.18652 6.32146C6.20058 6.42672 6.21527 6.62436 6.15541 6.8638L3.24498 6.1362ZM4.39553 8.25797C4.39553 8.38882 4.41426 8.50201 4.41444 8.50325C4.41969 8.53874 4.42562 8.5727 4.43049 8.59947C4.44054 8.6547 4.45323 8.71817 4.4665 8.78193C4.49345 8.91132 4.52891 9.07121 4.5659 9.22879C4.60235 9.38408 4.64368 9.55167 4.6824 9.6918C4.70099 9.75908 4.72453 9.84036 4.75096 9.91778C4.76345 9.95438 4.78487 10.0147 4.81458 10.0822C4.82933 10.1156 4.85468 10.1705 4.89098 10.2342C4.91726 10.2803 4.99738 10.4185 5.13953 10.5607L7.26086 8.43934C7.33789 8.51637 7.39129 8.58685 7.4229 8.63164C7.45632 8.679 7.48104 8.72005 7.49751 8.74894C7.52948 8.80506 7.55016 8.85042 7.55994 8.8726C7.57968 8.91742 7.58987 8.94796 7.59009 8.94859C7.59196 8.95408 7.58674 8.93874 7.57406 8.89285C7.55024 8.80663 7.51901 8.68166 7.48651 8.54322C7.45456 8.40707 7.42468 8.27205 7.40352 8.17042C7.39274 8.11866 7.38569 8.08259 7.38202 8.06237C7.38002 8.05141 7.38059 8.05368 7.38219 8.06451C7.38296 8.06975 7.38521 8.08522 7.38756 8.10697C7.38877 8.11814 7.39049 8.13548 7.39201 8.15705C7.39339 8.17667 7.39553 8.21256 7.39553 8.25797H4.39553ZM5.13954 10.5607C5.49668 10.9178 5.91305 10.9961 6.13257 11.0124C6.35683 11.029 6.54083 10.9953 6.6427 10.9723C6.85058 10.9252 7.03091 10.8471 7.14102 10.7958C7.38036 10.6843 7.63297 10.5341 7.83692 10.4052C8.05057 10.2701 8.25843 10.128 8.42037 10.0112C8.50042 9.95338 8.57889 9.89484 8.64582 9.84171C8.67778 9.81634 8.72008 9.78196 8.76322 9.74348C8.78414 9.72481 8.81803 9.69385 8.85607 9.6547C8.87322 9.63705 8.97752 9.53219 9.0723 9.37533L6.50455 7.82397C6.55877 7.73423 6.61065 7.67024 6.63547 7.64061C6.66435 7.60614 6.68906 7.57996 6.70437 7.56421C6.73442 7.53328 6.75787 7.51218 6.76605 7.50488C6.7837 7.48913 6.79131 7.48354 6.78062 7.49203C6.76226 7.5066 6.72363 7.536 6.6648 7.57846C6.54898 7.66204 6.39198 7.76946 6.23392 7.86938C6.06615 7.97543 5.94019 8.04565 5.87438 8.0763C5.83191 8.09608 5.878 8.06947 5.98004 8.04637C6.02899 8.03528 6.16716 8.00674 6.35395 8.02056C6.53599 8.03403 6.92324 8.10172 7.26086 8.43934L5.13954 10.5607ZM9.0723 9.37532C9.39243 8.84544 9.32434 8.3112 9.21566 7.99088C9.11768 7.70209 8.96115 7.49079 8.87329 7.38111C8.69451 7.15793 8.46314 6.95257 8.34689 6.848C8.1806 6.69841 8.11259 6.63667 8.07404 6.59396C8.05698 6.57505 8.10077 6.61858 8.15268 6.71331C8.19463 6.78988 8.34504 7.08358 8.28671 7.50017L5.31569 7.08423C5.24544 7.58602 5.42331 7.97528 5.52178 8.15497C5.6302 8.35282 5.75953 8.50706 5.8467 8.60367C6.01662 8.79199 6.23179 8.98054 6.34053 9.07836C6.49932 9.2212 6.53483 9.26037 6.53191 9.25673C6.52471 9.24774 6.50393 9.22113 6.47806 9.17862C6.45323 9.13783 6.41103 9.06178 6.37471 8.95474C6.2981 8.72892 6.22895 8.28015 6.50455 7.82398L9.0723 9.37532ZM8.28671 7.50017C8.33858 7.12968 8.38538 6.72392 8.42795 6.39283L5.45244 6.01028C5.40154 6.40618 5.36543 6.72893 5.31569 7.08423L8.28671 7.50017ZM8.42795 6.39283C8.4444 6.26482 8.46111 6.14027 8.47884 6.01792L5.50986 5.58763C5.48911 5.73079 5.47019 5.87217 5.45244 6.01028L8.42795 6.39283ZM8.47884 6.01792C8.49421 5.91193 8.55822 5.77655 8.8102 5.31291L6.17432 3.88037C6.01705 4.16976 5.61933 4.83233 5.50986 5.58763L8.47884 6.01792ZM8.81019 5.31292C8.77914 5.37005 8.73982 5.42762 8.79425 5.34464C8.81852 5.30765 8.86444 5.23731 8.9109 5.1565C8.95106 5.08665 9.02803 4.9473 9.08689 4.77439C9.11666 4.6869 9.15927 4.54112 9.17367 4.35911C9.18753 4.18406 9.18366 3.86989 9.01418 3.53094L6.33089 4.87257C6.17207 4.55492 6.17156 4.26723 6.18303 4.12241C6.19504 3.97063 6.22949 3.85885 6.24689 3.80774C6.26644 3.75029 6.28513 3.7103 6.29359 3.6929C6.30295 3.67365 6.30937 3.6625 6.31007 3.66129C6.31016 3.66112 6.30505 3.6698 6.28582 3.69911C6.28082 3.70673 6.26316 3.7335 6.25187 3.75092C6.24527 3.76112 6.20929 3.81603 6.17432 3.88037L8.81019 5.31292ZM9.01418 3.53093C8.79265 3.08789 8.43241 2.89531 8.27896 2.82621C8.10674 2.74867 7.95734 2.72005 7.88374 2.70818C7.73148 2.68363 7.60252 2.68571 7.5479 2.68715C7.42107 2.69048 7.29791 2.70533 7.22777 2.71438C7.14838 2.72462 7.0681 2.73685 7.02456 2.74333C6.99819 2.74725 6.98733 2.74879 6.98334 2.74932C6.94965 2.75376 7.02411 2.74184 7.11974 2.74053L7.16084 5.74024C7.27155 5.73873 7.37317 5.72388 7.37556 5.72357C7.40766 5.71933 7.4418 5.71427 7.46621 5.71064C7.52422 5.70201 7.56855 5.69528 7.61157 5.68973C7.66384 5.68299 7.66088 5.68522 7.62676 5.68611C7.6185 5.68633 7.52902 5.68974 7.40621 5.66993C7.34734 5.66044 7.21017 5.63506 7.04726 5.56171C6.90312 5.49681 6.5493 5.30939 6.33089 4.87257L9.01418 3.53093ZM7.11975 2.74053C6.78563 2.7451 6.4768 2.74039 6.10156 2.74039V5.74039C6.4186 5.74039 6.80275 5.74515 7.16084 5.74024L7.11975 2.74053ZM6.10156 2.74039C5.6628 2.74039 5.24422 2.78218 4.88119 2.82493L5.23204 5.80434C5.56358 5.7653 5.84235 5.74039 6.10156 5.74039V2.74039ZM4.88119 2.82493C4.59497 2.85863 4.44277 2.88009 4.19072 2.9089L4.53136 5.8895C4.74134 5.8655 5.05308 5.82542 5.23204 5.80434L4.88119 2.82493ZM4.19072 2.9089C4.12245 2.9167 3.85175 2.94451 3.57881 3.00868C3.44489 3.04016 3.24639 3.09451 3.0426 3.19081C2.89063 3.26262 2.45239 3.48456 2.19742 3.9945L4.8807 5.33614C4.76802 5.56151 4.62086 5.7006 4.53035 5.77286C4.43815 5.84646 4.36033 5.88621 4.32437 5.9032C4.25715 5.93496 4.22661 5.93817 4.26531 5.92907C4.33762 5.91208 4.43083 5.90099 4.53136 5.8895L4.19072 2.9089ZM11.3434 5.93236C11.5023 5.75359 11.5908 5.57628 11.6391 5.46273C11.6636 5.40528 11.6811 5.35581 11.6923 5.32291C11.7027 5.29229 11.7118 5.26277 11.7138 5.25639C11.7178 5.24363 11.7157 5.25092 11.7117 5.26225C11.7073 5.27514 11.6971 5.30355 11.6809 5.34035C11.6485 5.41407 11.5828 5.54286 11.4617 5.67743L9.23183 3.67053C9.07717 3.84237 8.98706 4.01369 8.93482 4.13244C8.90873 4.19176 8.88981 4.24331 8.87722 4.27962C8.86517 4.31439 8.85548 4.34539 8.85205 4.35628C8.84662 4.37355 8.84843 4.36762 8.85094 4.36019C8.85423 4.35048 8.86346 4.32379 8.87852 4.28838C8.90808 4.2189 8.9737 4.08268 9.10118 3.93926L11.3434 5.93236ZM11.4617 5.67743C11.4118 5.73288 11.3631 5.77558 11.3819 5.75845C11.3844 5.75617 11.3948 5.74674 11.407 5.73518C11.4187 5.7241 11.4423 5.70159 11.4702 5.67207C11.4719 5.67027 11.6971 5.45273 11.8124 5.09687C11.8855 4.87146 11.9422 4.50514 11.7873 4.09843C11.6338 3.6954 11.3523 3.46266 11.1574 3.34533C10.8417 3.15525 10.5378 3.13702 10.5162 3.13497C10.3799 3.12205 10.255 3.13066 10.2506 3.13088L10.4043 6.12694C10.4462 6.12479 10.3514 6.1328 10.2331 6.12158C10.2205 6.12039 9.92256 6.10359 9.61023 5.91557C9.41704 5.79928 9.13665 5.56772 8.98369 5.16606C8.82933 4.76071 8.886 4.39592 8.95848 4.17221C9.02581 3.96441 9.12315 3.82089 9.16907 3.75749C9.22115 3.68558 9.26848 3.63407 9.29182 3.60942C9.31746 3.58235 9.33831 3.56247 9.34705 3.55422C9.35219 3.54936 9.35626 3.5456 9.35853 3.54351C9.35973 3.5424 9.36068 3.54153 9.36128 3.54099C9.36186 3.54045 9.36225 3.5401 9.36229 3.54006C9.36686 3.53591 9.29988 3.59492 9.23183 3.67053L11.4617 5.67743ZM10.2506 3.13088C9.71205 3.1585 9.15996 3.23278 8.62522 3.35619L9.2998 6.27936C9.65452 6.1975 10.0318 6.14604 10.4043 6.12694L10.2506 3.13088ZM8.62522 3.35619C8.61616 3.35828 8.60724 3.36036 8.59844 3.36243L9.28689 6.28237C9.29086 6.28143 9.29516 6.28043 9.2998 6.27936L8.62522 3.35619ZM8.59844 3.36243C8.52037 3.38084 8.4333 3.40307 8.35218 3.42944C8.3505 3.42999 8.20865 3.47256 8.05827 3.55723C8.02178 3.57777 7.893 3.65051 7.75727 3.77994C7.69085 3.84327 7.5534 3.98469 7.44485 4.20641C7.32748 4.44615 7.20961 4.86197 7.36881 5.34016C7.52147 5.79871 7.84107 6.04673 8.02841 6.15758C8.21407 6.26744 8.38057 6.31149 8.46185 6.32988C8.62754 6.36737 8.7613 6.36724 8.80344 6.367C8.97168 6.36605 9.10889 6.33497 9.11898 6.33288C9.16892 6.32251 9.2151 6.31072 9.25517 6.29941C9.33543 6.27676 9.4281 6.24565 9.52591 6.20436L8.35942 3.44044C8.38713 3.42874 8.41303 3.4199 8.4405 3.41214C8.45417 3.40829 8.47745 3.40209 8.50932 3.39548C8.52492 3.39224 8.55101 3.38714 8.58446 3.38223C8.60522 3.37918 8.68366 3.36763 8.78644 3.36705C8.82681 3.36682 8.95918 3.36658 9.12389 3.40384C9.20467 3.42212 9.37078 3.46604 9.55616 3.57572C9.74321 3.68641 10.0626 3.93423 10.2152 4.39255C10.3743 4.87051 10.2565 5.28608 10.1393 5.52554C10.0309 5.74697 9.89365 5.88807 9.8276 5.95105C9.69259 6.07979 9.56498 6.15173 9.53013 6.17135C9.43667 6.22397 9.3594 6.25352 9.34301 6.25986C9.31322 6.27138 9.29043 6.27897 9.27965 6.28247C9.24422 6.29399 9.2381 6.29387 9.28689 6.28237L8.59844 3.36243ZM9.52591 6.20436C9.6457 6.15381 9.84015 6.06029 10.0341 5.90055L8.12699 3.58476C8.18892 3.53376 8.24229 3.50077 8.27625 3.48158C8.31146 3.46169 8.3401 3.44859 8.35942 3.44044L9.52591 6.20436ZM10.0341 5.90055C9.94532 5.97368 9.86362 6.01361 9.82322 6.03079C9.80669 6.03781 9.79935 6.04 9.8114 6.03583C9.81716 6.03384 9.82505 6.03117 9.83798 6.02688C9.84594 6.02424 9.87075 6.01604 9.8854 6.01116L8.93671 3.16511C8.89219 3.17995 8.48488 3.29003 8.12699 3.58476L10.0341 5.90055Z" fill="#FFDB72"/>
<path d="M3.7002 5.5H6.7002M6.7002 5.5V4M6.7002 5.5V6.7M6.7002 6.7H4.6002M6.7002 6.7V9.1M6.7002 9.1L5.2002 10.3H8.2002L6.7002 9.1Z" stroke="white" stroke-width="0.6"/>
</svg>
